<mxfile host="Electron" modified="2024-04-13T13:08:37.937Z" agent="Mozilla/5.0 (Windows NT 10.0; Win64; x64) AppleWebKit/537.36 (KHTML, like Gecko) draw.io/21.7.5 Chrome/114.0.5735.289 Electron/25.8.1 Safari/537.36" etag="hICAjMzVk0wEZbjjA23L" version="21.7.5" type="device">
  <diagram name="Page-1" id="VvDIMOCYECcrXnacSdCP">
    <mxGraphModel dx="964" dy="168" grid="1" gridSize="10" guides="1" tooltips="1" connect="1" arrows="1" fold="1" page="1" pageScale="1" pageWidth="827" pageHeight="1169" math="0" shadow="0">
      <root>
        <mxCell id="0" />
        <mxCell id="1" parent="0" />
        <mxCell id="ixvP6v56iMUqsWWSy3wV-1" value="Excursion" style="swimlane;fontStyle=1;align=center;verticalAlign=top;childLayout=stackLayout;horizontal=1;startSize=26;horizontalStack=0;resizeParent=1;resizeParentMax=0;resizeLast=0;collapsible=1;marginBottom=0;whiteSpace=wrap;html=1;" parent="1" vertex="1">
          <mxGeometry x="-46" y="30" width="260" height="270" as="geometry" />
        </mxCell>
        <mxCell id="ixvP6v56iMUqsWWSy3wV-2" value="- nombre:String&lt;br&gt;- fechaInicio:Date&lt;br&gt;- fechaFin:Date&lt;br&gt;- puntoEncuentro:String&lt;br&gt;- costo:Real&lt;br&gt;- cupoMinimo:Integer&lt;br&gt;- cupoMaximo:Integer" style="text;strokeColor=none;fillColor=none;align=left;verticalAlign=top;spacingLeft=4;spacingRight=4;overflow=hidden;rotatable=0;points=[[0,0.5],[1,0.5]];portConstraint=eastwest;whiteSpace=wrap;html=1;" parent="ixvP6v56iMUqsWWSy3wV-1" vertex="1">
          <mxGeometry y="26" width="260" height="114" as="geometry" />
        </mxCell>
        <mxCell id="ixvP6v56iMUqsWWSy3wV-3" value="" style="line;strokeWidth=1;fillColor=none;align=left;verticalAlign=middle;spacingTop=-1;spacingLeft=3;spacingRight=3;rotatable=0;labelPosition=right;points=[];portConstraint=eastwest;strokeColor=inherit;" parent="ixvP6v56iMUqsWWSy3wV-1" vertex="1">
          <mxGeometry y="140" width="260" height="8" as="geometry" />
        </mxCell>
        <mxCell id="ixvP6v56iMUqsWWSy3wV-4" value="+ inscribir(unUsuario:Usuario)&lt;br&gt;+ obtenerInformacion():String&lt;br&gt;+ setState(state:State)&lt;br&gt;+ getInscriptos():Usuario[*]&lt;br&gt;+ getEnEspera():Usuario[*]&lt;br&gt;+ restantesCupoMinimo():Integer&lt;br&gt;+ restantesCupoMaximo():Integer&lt;br&gt;+ getStringEmailUsuariosInscriptos(): String" style="text;strokeColor=none;fillColor=none;align=left;verticalAlign=top;spacingLeft=4;spacingRight=4;overflow=hidden;rotatable=0;points=[[0,0.5],[1,0.5]];portConstraint=eastwest;whiteSpace=wrap;html=1;" parent="ixvP6v56iMUqsWWSy3wV-1" vertex="1">
          <mxGeometry y="148" width="260" height="122" as="geometry" />
        </mxCell>
        <mxCell id="ixvP6v56iMUqsWWSy3wV-5" value="Usuario" style="swimlane;fontStyle=1;align=center;verticalAlign=top;childLayout=stackLayout;horizontal=1;startSize=26;horizontalStack=0;resizeParent=1;resizeParentMax=0;resizeLast=0;collapsible=1;marginBottom=0;whiteSpace=wrap;html=1;" parent="1" vertex="1">
          <mxGeometry x="-46" y="390" width="260" height="130" as="geometry" />
        </mxCell>
        <mxCell id="ixvP6v56iMUqsWWSy3wV-6" value="- nombre:String&lt;br&gt;- apellido:String&lt;br&gt;- email:String" style="text;strokeColor=none;fillColor=none;align=left;verticalAlign=top;spacingLeft=4;spacingRight=4;overflow=hidden;rotatable=0;points=[[0,0.5],[1,0.5]];portConstraint=eastwest;whiteSpace=wrap;html=1;" parent="ixvP6v56iMUqsWWSy3wV-5" vertex="1">
          <mxGeometry y="26" width="260" height="54" as="geometry" />
        </mxCell>
        <mxCell id="ixvP6v56iMUqsWWSy3wV-7" value="" style="line;strokeWidth=1;fillColor=none;align=left;verticalAlign=middle;spacingTop=-1;spacingLeft=3;spacingRight=3;rotatable=0;labelPosition=right;points=[];portConstraint=eastwest;strokeColor=inherit;" parent="ixvP6v56iMUqsWWSy3wV-5" vertex="1">
          <mxGeometry y="80" width="260" height="8" as="geometry" />
        </mxCell>
        <mxCell id="ixvP6v56iMUqsWWSy3wV-8" value="+ &amp;lt;&amp;lt;create&amp;gt;&amp;gt; (nombre:String, apellido:String, email:String)" style="text;strokeColor=none;fillColor=none;align=left;verticalAlign=top;spacingLeft=4;spacingRight=4;overflow=hidden;rotatable=0;points=[[0,0.5],[1,0.5]];portConstraint=eastwest;whiteSpace=wrap;html=1;" parent="ixvP6v56iMUqsWWSy3wV-5" vertex="1">
          <mxGeometry y="88" width="260" height="42" as="geometry" />
        </mxCell>
        <mxCell id="ixvP6v56iMUqsWWSy3wV-9" value="&lt;p style=&quot;margin:0px;margin-top:4px;text-align:center;&quot;&gt;&lt;i&gt;&amp;lt;&amp;lt;Abstact&amp;gt;&amp;gt;&lt;/i&gt;&lt;br&gt;&lt;b&gt;State&lt;/b&gt;&lt;/p&gt;&lt;hr size=&quot;1&quot;&gt;&lt;p style=&quot;margin:0px;margin-left:4px;&quot;&gt;-&lt;/p&gt;&lt;hr size=&quot;1&quot;&gt;&lt;p style=&quot;margin:0px;margin-left:4px;&quot;&gt;+ &amp;lt;&amp;lt;Abstract&amp;gt;&amp;gt; inscribir(unUsuario:Usuario)&lt;br&gt;&lt;/p&gt;&lt;p style=&quot;margin:0px;margin-left:4px;&quot;&gt;+ &amp;lt;&amp;lt;Abstract&amp;gt;&amp;gt; obtenerInformacion():String&lt;/p&gt;&lt;p style=&quot;margin:0px;margin-left:4px;&quot;&gt;&lt;br&gt;&lt;/p&gt;" style="verticalAlign=top;align=left;overflow=fill;fontSize=12;fontFamily=Helvetica;html=1;whiteSpace=wrap;" parent="1" vertex="1">
          <mxGeometry x="450" y="100" width="243" height="111" as="geometry" />
        </mxCell>
        <mxCell id="ixvP6v56iMUqsWWSy3wV-11" value="excursion" style="text;html=1;align=center;verticalAlign=middle;resizable=0;points=[];autosize=1;strokeColor=none;fillColor=none;" parent="1" vertex="1">
          <mxGeometry x="310" y="128" width="70" height="30" as="geometry" />
        </mxCell>
        <mxCell id="ixvP6v56iMUqsWWSy3wV-12" value="1" style="endArrow=open;html=1;endSize=12;startArrow=diamondThin;startSize=14;startFill=1;edgeStyle=orthogonalEdgeStyle;align=left;verticalAlign=bottom;rounded=0;entryX=-0.002;entryY=0.899;entryDx=0;entryDy=0;entryPerimeter=0;" parent="1" target="ixvP6v56iMUqsWWSy3wV-9" edge="1">
          <mxGeometry x="-1" y="3" relative="1" as="geometry">
            <mxPoint x="215" y="200" as="sourcePoint" />
            <mxPoint x="440" y="200" as="targetPoint" />
          </mxGeometry>
        </mxCell>
        <mxCell id="ixvP6v56iMUqsWWSy3wV-13" value="state" style="text;html=1;align=center;verticalAlign=middle;resizable=0;points=[];autosize=1;strokeColor=none;fillColor=none;" parent="1" vertex="1">
          <mxGeometry x="320" y="180" width="50" height="30" as="geometry" />
        </mxCell>
        <mxCell id="ixvP6v56iMUqsWWSy3wV-14" value="" style="endArrow=classic;html=1;rounded=0;entryX=0.25;entryY=0;entryDx=0;entryDy=0;exitX=0.254;exitY=1;exitDx=0;exitDy=0;exitPerimeter=0;" parent="1" edge="1" target="ixvP6v56iMUqsWWSy3wV-5" source="ixvP6v56iMUqsWWSy3wV-4">
          <mxGeometry width="50" height="50" relative="1" as="geometry">
            <mxPoint x="20" y="310" as="sourcePoint" />
            <mxPoint x="60" y="380.05" as="targetPoint" />
          </mxGeometry>
        </mxCell>
        <mxCell id="ixvP6v56iMUqsWWSy3wV-15" value="0..*&lt;br&gt;inscriptos" style="text;html=1;align=center;verticalAlign=middle;resizable=0;points=[];autosize=1;strokeColor=none;fillColor=none;" parent="1" vertex="1">
          <mxGeometry x="20" y="317" width="70" height="40" as="geometry" />
        </mxCell>
        <mxCell id="ixvP6v56iMUqsWWSy3wV-16" value="Provisoria" style="swimlane;fontStyle=1;align=center;verticalAlign=top;childLayout=stackLayout;horizontal=1;startSize=26;horizontalStack=0;resizeParent=1;resizeParentMax=0;resizeLast=0;collapsible=1;marginBottom=0;whiteSpace=wrap;html=1;" parent="1" vertex="1">
          <mxGeometry x="280" y="257" width="170" height="100" as="geometry" />
        </mxCell>
        <mxCell id="ixvP6v56iMUqsWWSy3wV-17" value="-" style="text;strokeColor=none;fillColor=none;align=left;verticalAlign=top;spacingLeft=4;spacingRight=4;overflow=hidden;rotatable=0;points=[[0,0.5],[1,0.5]];portConstraint=eastwest;whiteSpace=wrap;html=1;" parent="ixvP6v56iMUqsWWSy3wV-16" vertex="1">
          <mxGeometry y="26" width="170" height="26" as="geometry" />
        </mxCell>
        <mxCell id="ixvP6v56iMUqsWWSy3wV-18" value="" style="line;strokeWidth=1;fillColor=none;align=left;verticalAlign=middle;spacingTop=-1;spacingLeft=3;spacingRight=3;rotatable=0;labelPosition=right;points=[];portConstraint=eastwest;strokeColor=inherit;" parent="ixvP6v56iMUqsWWSy3wV-16" vertex="1">
          <mxGeometry y="52" width="170" height="8" as="geometry" />
        </mxCell>
        <mxCell id="ixvP6v56iMUqsWWSy3wV-19" value="+ obtenerInformacion():String&lt;br&gt;+ inscribir(unUsuario:Usuario)" style="text;strokeColor=none;fillColor=none;align=left;verticalAlign=top;spacingLeft=4;spacingRight=4;overflow=hidden;rotatable=0;points=[[0,0.5],[1,0.5]];portConstraint=eastwest;whiteSpace=wrap;html=1;" parent="ixvP6v56iMUqsWWSy3wV-16" vertex="1">
          <mxGeometry y="60" width="170" height="40" as="geometry" />
        </mxCell>
        <mxCell id="ixvP6v56iMUqsWWSy3wV-20" value="Definitiva" style="swimlane;fontStyle=1;align=center;verticalAlign=top;childLayout=stackLayout;horizontal=1;startSize=26;horizontalStack=0;resizeParent=1;resizeParentMax=0;resizeLast=0;collapsible=1;marginBottom=0;whiteSpace=wrap;html=1;" parent="1" vertex="1">
          <mxGeometry x="480" y="257" width="170" height="100" as="geometry" />
        </mxCell>
        <mxCell id="ixvP6v56iMUqsWWSy3wV-21" value="-" style="text;strokeColor=none;fillColor=none;align=left;verticalAlign=top;spacingLeft=4;spacingRight=4;overflow=hidden;rotatable=0;points=[[0,0.5],[1,0.5]];portConstraint=eastwest;whiteSpace=wrap;html=1;" parent="ixvP6v56iMUqsWWSy3wV-20" vertex="1">
          <mxGeometry y="26" width="170" height="26" as="geometry" />
        </mxCell>
        <mxCell id="ixvP6v56iMUqsWWSy3wV-22" value="" style="line;strokeWidth=1;fillColor=none;align=left;verticalAlign=middle;spacingTop=-1;spacingLeft=3;spacingRight=3;rotatable=0;labelPosition=right;points=[];portConstraint=eastwest;strokeColor=inherit;" parent="ixvP6v56iMUqsWWSy3wV-20" vertex="1">
          <mxGeometry y="52" width="170" height="8" as="geometry" />
        </mxCell>
        <mxCell id="ixvP6v56iMUqsWWSy3wV-23" value="+ obtenerInformacion():String&lt;br&gt;+ inscribir(unUsuario:Usuario)" style="text;strokeColor=none;fillColor=none;align=left;verticalAlign=top;spacingLeft=4;spacingRight=4;overflow=hidden;rotatable=0;points=[[0,0.5],[1,0.5]];portConstraint=eastwest;whiteSpace=wrap;html=1;" parent="ixvP6v56iMUqsWWSy3wV-20" vertex="1">
          <mxGeometry y="60" width="170" height="40" as="geometry" />
        </mxCell>
        <mxCell id="ixvP6v56iMUqsWWSy3wV-24" value="DefinitivaCompleta" style="swimlane;fontStyle=1;align=center;verticalAlign=top;childLayout=stackLayout;horizontal=1;startSize=26;horizontalStack=0;resizeParent=1;resizeParentMax=0;resizeLast=0;collapsible=1;marginBottom=0;whiteSpace=wrap;html=1;" parent="1" vertex="1">
          <mxGeometry x="680" y="257" width="170" height="100" as="geometry" />
        </mxCell>
        <mxCell id="ixvP6v56iMUqsWWSy3wV-25" value="-" style="text;strokeColor=none;fillColor=none;align=left;verticalAlign=top;spacingLeft=4;spacingRight=4;overflow=hidden;rotatable=0;points=[[0,0.5],[1,0.5]];portConstraint=eastwest;whiteSpace=wrap;html=1;" parent="ixvP6v56iMUqsWWSy3wV-24" vertex="1">
          <mxGeometry y="26" width="170" height="26" as="geometry" />
        </mxCell>
        <mxCell id="ixvP6v56iMUqsWWSy3wV-26" value="" style="line;strokeWidth=1;fillColor=none;align=left;verticalAlign=middle;spacingTop=-1;spacingLeft=3;spacingRight=3;rotatable=0;labelPosition=right;points=[];portConstraint=eastwest;strokeColor=inherit;" parent="ixvP6v56iMUqsWWSy3wV-24" vertex="1">
          <mxGeometry y="52" width="170" height="8" as="geometry" />
        </mxCell>
        <mxCell id="ixvP6v56iMUqsWWSy3wV-27" value="+ obtenerInformacion():String&lt;br&gt;+ inscribir(unUsuario:Usuario)" style="text;strokeColor=none;fillColor=none;align=left;verticalAlign=top;spacingLeft=4;spacingRight=4;overflow=hidden;rotatable=0;points=[[0,0.5],[1,0.5]];portConstraint=eastwest;whiteSpace=wrap;html=1;" parent="ixvP6v56iMUqsWWSy3wV-24" vertex="1">
          <mxGeometry y="60" width="170" height="40" as="geometry" />
        </mxCell>
        <mxCell id="ixvP6v56iMUqsWWSy3wV-28" value="" style="endArrow=classic;html=1;rounded=0;exitX=-0.001;exitY=0.452;exitDx=0;exitDy=0;exitPerimeter=0;" parent="1" source="ixvP6v56iMUqsWWSy3wV-9" edge="1">
          <mxGeometry width="50" height="50" relative="1" as="geometry">
            <mxPoint x="324.5" y="150" as="sourcePoint" />
            <mxPoint x="215.5" y="150" as="targetPoint" />
          </mxGeometry>
        </mxCell>
        <mxCell id="ixvP6v56iMUqsWWSy3wV-29" value="" style="endArrow=classic;html=1;rounded=0;exitX=0.5;exitY=0;exitDx=0;exitDy=0;entryX=0.5;entryY=1;entryDx=0;entryDy=0;edgeStyle=orthogonalEdgeStyle;" parent="1" source="ixvP6v56iMUqsWWSy3wV-16" target="ixvP6v56iMUqsWWSy3wV-9" edge="1">
          <mxGeometry width="50" height="50" relative="1" as="geometry">
            <mxPoint x="500" y="250" as="sourcePoint" />
            <mxPoint x="550" y="200" as="targetPoint" />
          </mxGeometry>
        </mxCell>
        <mxCell id="ixvP6v56iMUqsWWSy3wV-30" value="" style="endArrow=classic;html=1;rounded=0;exitX=0.5;exitY=0;exitDx=0;exitDy=0;entryX=0.5;entryY=1;entryDx=0;entryDy=0;edgeStyle=orthogonalEdgeStyle;" parent="1" source="ixvP6v56iMUqsWWSy3wV-20" target="ixvP6v56iMUqsWWSy3wV-9" edge="1">
          <mxGeometry width="50" height="50" relative="1" as="geometry">
            <mxPoint x="375" y="267" as="sourcePoint" />
            <mxPoint x="575" y="220" as="targetPoint" />
          </mxGeometry>
        </mxCell>
        <mxCell id="ixvP6v56iMUqsWWSy3wV-31" value="" style="endArrow=classic;html=1;rounded=0;exitX=0.5;exitY=0;exitDx=0;exitDy=0;entryX=0.5;entryY=1;entryDx=0;entryDy=0;edgeStyle=orthogonalEdgeStyle;" parent="1" source="ixvP6v56iMUqsWWSy3wV-24" target="ixvP6v56iMUqsWWSy3wV-9" edge="1">
          <mxGeometry width="50" height="50" relative="1" as="geometry">
            <mxPoint x="575" y="267" as="sourcePoint" />
            <mxPoint x="575" y="220" as="targetPoint" />
          </mxGeometry>
        </mxCell>
        <mxCell id="ixvP6v56iMUqsWWSy3wV-32" value="" style="endArrow=classic;html=1;rounded=0;exitX=0.752;exitY=1.004;exitDx=0;exitDy=0;exitPerimeter=0;entryX=0.75;entryY=0;entryDx=0;entryDy=0;" parent="1" edge="1" target="ixvP6v56iMUqsWWSy3wV-5" source="ixvP6v56iMUqsWWSy3wV-4">
          <mxGeometry width="50" height="50" relative="1" as="geometry">
            <mxPoint x="182.99999999999994" y="309.9980000000001" as="sourcePoint" />
            <mxPoint x="183" y="380" as="targetPoint" />
          </mxGeometry>
        </mxCell>
        <mxCell id="ixvP6v56iMUqsWWSy3wV-33" value="0..*&lt;br&gt;enEspera" style="text;html=1;align=center;verticalAlign=middle;resizable=0;points=[];autosize=1;strokeColor=none;fillColor=none;" parent="1" vertex="1">
          <mxGeometry x="150" y="317" width="70" height="40" as="geometry" />
        </mxCell>
      </root>
    </mxGraphModel>
  </diagram>
</mxfile>
